<svg fill="none" height="120" viewBox="0 0 120 120" width="120" xmlns="http://www.w3.org/2000/svg"><g clip-rule="evenodd" fill-rule="evenodd"><path d="m24.13 49.3105c-.1463.1457-5.2934.2971-11.4383.3354-7.90556.0499-11.41904.2507-12.015215.687-.777244.5684-.813559 2.7317-.466548 27.9732.318262 23.1599.490758 27.4719 1.124253 28.1049.65166.652 4.56309.708 30.32261.434 16.2656-.174 29.8944-.417 30.2858-.542 1.2806-.408-.116-55.03-1.441-56.3565-.4101-.4111-5.7943-.6284-18.3437-.7414-9.7698-.0883-17.8821-.0409-18.0279.1054z" fill="#0061fe"/><g fill="#1e1919"><path d="m19.3671 13.263c-3.0954.4938-8.5129 3.1362-10.70439 5.2218-2.35897 2.244-4.06881 7.8456-4.26955 13.9834-.20074 6.1564.54422 17.2143 1.21504 18.0314.72429.8822 1.75221.7853 2.80232-.2648.81204-.812.85592-1.5035.47008-7.4395-.77019-11.863.18258-18.727 3.1735-22.8558 3.2951-4.5485 12.5303-6.8374 22.9991-5.7 7.4239.807 10.7412 3.0167 13.3998 8.9254 1.0304 2.2904 1.1449 3.5034 1.4021 14.8514l.2799 12.3572h1.7568c1.6538 0 1.7779-.1185 2.1143-2.0175.575-3.2411.4681-18.1152-.1508-21.033-1.4319-6.7465-5.2879-10.7467-12.6149-13.086-2.5325-.8085-4.9147-1.0617-11.2804-1.2004-4.4385-.0969-9.2054.0055-10.5929.2264zm46.4465 3.4999c-.8211 1.329-4.3301 11.0292-4.3301 11.9709 0 .7959.4535 1.272 1.5883 1.6674 2.2652.7899 2.3469.7561 3.2431-1.3376 1.2539-2.9279 3.738-9.8989 3.7405-10.4986.0015-.295-.7994-.9195-1.7799-1.387-2.064-.984-2.1058-.9911-2.4619-.4151zm-42.1775 5.0397c-4.8576 1.0466-8.2334 3.8217-9.5569 7.8572-.7384 2.2515-.8721 19.7983-.1564 20.514.2341.234 1.1011.2446 1.9268.0237l1.501-.4015.0857-7.2771c.1271-10.7897.4686-13.1506 2.2566-15.6191 2.243-3.0963 5.1381-4.2362 10.7715-4.2408 2.7312-.002 4.9923.2507 5.6767.6346.6255.351 1.8672 2.0482 2.76 3.7717l1.6226 3.1332.2663 9.9205c.1462 5.4564.4408 10.0946.6546 10.3075.2134.2128 1.0078.1684 1.7654-.0984l1.3769-.4852v-10.0744c0-9.7324-.0424-10.1576-1.2519-12.5257-1.4445-2.828-2.9057-4.1253-5.4896-4.8733-2.3655-.6849-11.8957-1.0652-14.2093-.5669zm51.0812 4.2348c-.8599 1.1787-2.0901 2.7155-2.7332 3.4141-2.4417 2.653-5.9612 7.5006-5.9612 8.2112 0 .7188 1.4193 1.3417 3.0893 1.3553.7631.0065 11.8352-11.7923 11.752-12.5237-.0555-.4887-3.2926-2.6005-3.9861-2.6005-.3284 0-1.3003.9648-2.1608 2.1436zm.8888 16.5117c-7.3317 2.7307-8.5744 3.282-8.5744 3.803 0 .289.638.9024 1.4178 1.3629 1.2811.757 1.7305.7681 4.6654.1165 1.786-.397 5.007-1.0976 7.1566-1.557 2.2027-.4711 3.909-1.0966 3.909-1.433 0-.9235-3.8041-4.0032-4.6322-3.7505-.0878.0267-1.8617.6829-3.9422 1.4581z"/><path d="m26.9398 62.264c-2.7206.6768-5.1467 2.4174-5.9224 4.2493-.3526.8323-.6149 2.8604-.5826 4.5077.051 2.5864.2436 3.1528 1.4153 4.1611.746.6415 1.7134 1.1666 2.1491 1.1666.9684 0 .8454 1.4173-1.0879 12.5569-.9472 5.4559-1.1838 7.8668-.7959 8.1064.9502.5871 13.776.5563 16.3312-.0399 1.3386-.3122 2.5612-.8978 2.7156-1.3008.2779-.7242.0751-2.132-1.8753-13.0179-1.2504-6.9791-1.2509-7.6721-.0076-8.0665 1.264-.401 2.2672-3.6179 1.8395-5.8977-.3743-1.9948-2.4952-4.4864-4.8602-5.7095-2.0266-1.0476-6.5781-1.3971-9.3188-.7157zm6.0247 3.6633c1.3613 2.3226 1.6075 4.4561.7692 6.6608-.5412 1.4243-.5215 1.5746 1.782 13.5505 1.8001 9.3557 1.907 8.872-1.9626 8.872-1.7683 0-3.9578.1483-4.8657.3299l-1.6498.3303.3627-3.2305c.1992-1.7764.6637-5.0458 1.0319-7.265 1.4935-9.0032 1.4945-8.9729-.4807-11.3369-1.4783-1.7699-1.7728-2.5163-1.7638-4.4728.0116-2.4306.8726-4.0012 2.763-5.0407 1.8107-.9962 2.6989-.6416 4.0138 1.6024z"/></g></g></svg>