<svg fill="none" height="120" viewBox="0 0 120 120" width="120" xmlns="http://www.w3.org/2000/svg"><g clip-rule="evenodd" fill-rule="evenodd"><path d="m26.8803 15.4136c-8.6045 1.1317-18.14065 7.6219-22.56745 15.3595-2.9131 5.0912-3.965734 8.9974-4.2219867 15.6633-.2124333 5.5147-.1224111 6.4211 1.0388267 10.4683 4.60589 16.0573 18.66551 27.0605 34.59371 27.0733 5.2356.0043 8.875-.6759 13.1904-2.4658l3.457-1.4337 4.8188 4.2139c2.6502 2.3177 8.9174 7.799 13.9277 12.1811 5.0103 4.3815 9.4642 7.9725 9.8981 7.9785 1.0112.013 8.9756-8.4196 8.9756-9.5041 0-.4497-1.0179-1.7386-2.2625-2.8641-1.2441-1.1255-5.9786-5.6061-10.5202-9.9567-4.5421-4.3506-9.4633-9.0003-10.9365-10.3325l-2.6778-2.4225 1.2518-2.8169c2.7811-6.2568 3.3475-9.1751 3.1122-16.0354-.1753-5.1031-.4544-7.0398-1.4585-10.1248-3.1584-9.701-10.4183-17.7306-20.1368-22.2712-6.273-2.9303-11.8796-3.7104-19.4824-2.7102z" fill="#0061fe"/><g fill="#1e1919"><path d="m28.5471 19.9626c-.6549.1191-2.1553.4458-3.3342.7263-1.1788.2801-2.6792.6021-3.3341.715-2.1405.3691-4.0015 1.2584-6.9265 3.3089-11.85048 8.3082-14.663078 25.8811-6.37772 39.8455 8.10822 13.6657 24.60892 18.7526 38.96332 12.0129 4.8336-2.2691 9.7443-7.1837 12.1092-12.1192 2.2958-4.7902 2.8273-7.3651 2.8021-13.5747-.0171-4.1615-.2553-5.9758-1.1574-8.8193-3.3118-10.4354-10.9756-18.213-20.837-21.1466-2.6435-.7864-9.7072-1.3494-11.9077-.9488zm10.2201 2.5344c7.2256 2.5702 13.9791 9.0336 17.5719 16.817 1.3913 3.0136 2.6921 8.9441 2.6835 12.2349-.0281 10.6069-5.6904 20.4912-14.1287 24.6613-3.0045 1.4851-4.1462 1.7837-7.4885 1.9595-4.9054.2572-7.9976-.3868-12.3615-2.5754-10.4798-5.2561-16.93562-15.6724-17.03279-27.4834-.04287-5.2189.55585-7.9358 2.80209-12.7136 2.0048-4.2644 7.5152-10.0539 11.3037-11.8762 1.3099-.6302 2.4887-1.2989 2.6197-1.4861.8879-1.2689 10.0087-.9688 14.0306.462zm-.5739 9.1218c-1.046.3186-2.6164 1.7271-4.8469 4.3463-3.8657 4.5387-4.2663 5.4885-2.5873 6.1267 1.9066.7249 2.3105.5597 3.849-1.5742 4.2696-5.9214 8.3744-8.6926 9.9453-6.7135 1.1831 1.4918 1.6699 3.1269 1.3556 4.5577-.3639 1.6571-6.5469 10.0801-8.7765 11.9558-1.1179.9407-1.8957 1.2532-2.5906 1.0408-.5463-.1672-1.9329-.4282-3.0808-.5807-1.6551-.2195-2.0414-.139-1.8685.3878.5749 1.7509 8.4954 2.652 11.1246 1.266 1.7838-.9407 7.4652-6.7131 9.3547-9.5047 1.1136-1.6452 1.3436-2.4168 1.1627-3.8943-.5983-4.8845-7.8358-8.9989-13.0413-7.4137zm-14.1711 13.7171c-1.7795 1.1022-4.7821 4.3306-6.8822 7.399-1.4003 2.0462-1.6018 2.7226-1.6342 5.4894-.0295 2.5302.1719 3.448 1.0155 4.6331 1.4503 2.0367 3.7723 3.0236 7.1146 3.0236 3.8495 0 6.2915-1.3585 10.0605-5.5966l3.0708-3.4533h-2.3572c-2.3159 0-2.4111.0591-5.4199 3.3775-1.6847 1.8576-3.4647 3.5942-3.9558 3.8591-2.1267 1.1469-4.7921-2.3035-4.4468-5.7562.2348-2.3453 1.9343-5.1908 5.3923-9.0275l2.7235-3.0217 2.5416.3173c1.398.1748 2.5416.1848 2.5416.0219 0-.1624-.9107-.7092-2.0243-1.2146-2.5964-1.1784-5.8848-1.2003-7.74-.051zm32.8728 29.5863c-2.5297 2.8769-4.4816 5.4214-4.3377 5.6543.1438.2329.9445.5596 1.7794.7268 1.4256.2853 1.7462.0591 5.287-3.7323 2.0729-2.2201 4.2187-4.6083 4.7688-5.307.9707-1.2346.9741-1.2894.1091-1.9219-1.909-1.3956-2.8512-.8283-7.6066 4.5801zm24.6989 14.9099c-2.9746 1.697-8.2739 7.2632-8.2739 8.6907 0 .3062 3.0583 1.6522 3.7542 1.6522.2477 0 1.1827-.6968 2.0777-1.5479.8945-.8512 2.2524-2.0996 3.0178-2.7731 1.6319-1.4375 4.0105-4.2806 4.0105-4.7935 0-.5459-2.0228-1.8429-2.8449-1.8238-.4001.0095-1.1837.2772-1.7414.5954z"/><path d="m73.371 20.7439c.1796 7.7738.1096 7.5862 2.7478 7.4152l2.2025-.1429-.1505-5.4485c-.0829-2.9964-.3582-5.8367-.6121-6.3111-.3287-.6139-1.016-.8626-2.3863-.8626h-1.9247zm-10.3282 4.2358c-.1925.3115 1.2426 2.111 3.4251 4.2949 3.558 3.5604 3.8443 3.7438 5.4232 3.478 3.1203-.5259 3.1089-1.1765-.0652-3.7862-1.5914-1.3084-3.4604-2.8612-4.153-3.4504-1.3398-1.1393-4.0624-1.4551-4.6301-.5363zm20.5178 2.0629c-3.2388 2.1805-6.2567 4.8602-5.8938 5.2332.1639.1681 1.0212.4177 1.9053.5544 1.3608.2101 2.2272-.1567 5.6556-2.3958 2.2268-1.4542 4.2096-2.6468 4.4059-2.6502.6773-.0114.3553-.9264-.4763-1.3522-2.172-1.1131-3.2037-1.0007-5.5967.6106zm-3.768 9.2566c-.7978.3129-.6611.5287 1.1112 1.7528 1.1117.7673 2.6516 1.9009 3.4213 2.5182 1.1122.8921 1.7366 1.0598 3.0398.815 3.0469-.5716 2.6954-1.3051-1.7961-3.7505-3.2708-1.7809-4.1325-1.98-5.7762-1.3355zm-6.0553.522c-.7707.4615-.8002 1.4294-.2172 7.1513.0933.9169.1939 2.2562.2229 2.9769.0424 1.0355.2839 1.3098 1.1531 1.3098.605 0 1.4914-.2862 1.9696-.6363.7978-.583.8349-1.0679.4482-5.8348-.4111-5.0693-.4511-5.2012-1.6123-5.3141-.6549-.0639-1.539.0924-1.9643.3472zm-66.46391 44.6052c-.72494.2963-.23863 1.9614 1.68803 5.7776 1.40508 2.7821 1.59368 2.9626 2.80588 2.6745 2.6359-.6268 2.645-.7178.4878-4.8526-1.7466-3.3485-2.2048-3.8962-3.23128-3.8638-.65778.0204-1.44559.1395-1.75043.2643zm14.36731 3.3404c-2.5392 1.326-4.5182 2.7749-4.5216 3.3093-.0019.2868.4154.9002.9269 1.3637 1.0031.9078.9846.9136 7.0961-2.3087l1.5961-.8416-1.0836-1.1536c-1.2527-1.3332-2.031-1.4051-4.0139-.3691zm-15.24181 9.5085c-1.30985.8883-2.9693 2.0076-3.68709 2.4882l-1.30604.8735 1.06788.9608c1.86093 1.6752 2.18721 1.6792 4.25533.0566 4.27913-3.3579 4.70023-3.8223 4.11103-4.5325-1.25414-1.5113-2.02433-1.4846-4.44111.1534zm8.15911.3196c-.7844.5739-.7516.8159.5492 4.0533.7607 1.8938 1.5009 3.5608 1.6442 3.7048.1439.143 1.0508-.069 2.0153-.472 2.0329-.849 2.0081-1.286-.3101-5.3957-1.4551-2.5787-2.3577-3.0169-3.8986-1.8904z"/></g></g></svg>