<svg fill="none" height="120" viewBox="0 0 120 120" width="120" xmlns="http://www.w3.org/2000/svg"><g clip-rule="evenodd" fill-rule="evenodd"><path d="m52.6515 43.0018c-2.2676.4101-6.3711 1.4905-9.1192 2.4022-4.1303 1.369-5.4242 2.0751-7.4625 4.0709-3.847 3.7665-4.7938 7.2901-5.3727 19.9854-.5047 11.0771-.3144 12.6712 2.0352 17.017 3.3417 6.1824 8.5592 8.7402 18.7163 9.1776l6.2401.2686.8575 1.5763c2.8664 5.2702 7.0667 8.9102 11.7106 10.1462 2.8512.758 9.6592 1.028 11.1849.442 1.5163-.582.8454-2.025-1.7218-3.703-2.6425-1.727-4.2812-4.293-4.2812-6.7033 0-1.3602.0194-1.3665 4.3374-1.3754 5.0115-.0105 10.4404-1.0384 13.351-2.5273 7.8349-4.0078 10.6599-12.4898 9.6889-29.091-.664-11.3609-1.908-14.2599-7.8178-18.2199-3.9089-2.6193-5.3511-3.1572-10.096-3.7665-6.0677-.7792-27.3744-.5804-32.2507.3002z" fill="#0061fe"/><g fill="#1e1919"><path d="m32.8526 12.2444c-5.666.4179-13.9293 1.7854-16.8278 2.7838-3.2228 1.1104-8.54713 4.3101-10.61123 6.3769-5.19812 5.2044-6.63185 14.2989-4.39162 27.8549 1.64088 9.9278 3.00678 12.5218 8.09134 15.3672 2.63191 1.4726 4.09091 1.9216 6.90421 2.1225l3.5667.2555.2981 2.1745c.5221 3.8101-1.5873 9.8048-4.1624 11.8305-1.6635 1.3086-1.6099 1.5462.5547 2.4505 3.1697 1.3244 10.4246.6346 11.8893-1.1303.8644-1.0416-.7407-1.5473-2.8527-.8991-1.0252.3144-2.2171.327-3.1009.0326l-1.4353-.4784 1.7828-2.3349c2.1619-2.8317 3.1903-6.6749 2.6199-9.7911-.2266-1.2371-.4259-2.4863-.4432-2.7754-.0169-.2892-1.9238-.6751-4.2371-.8575-7.1229-.5615-9.279-1.7271-11.54341-6.2402-1.07149-2.1356-1.40429-3.1272-2.20659-6.5719-.97264-4.1755-1.76863-12.6559-1.50523-16.0355.65614-8.4152 3.81749-13.0502 11.47513-16.823 5.4625-2.6908 9.4577-3.2308 24.2845-3.2818 8.4331-.0289 11.9693.1667 14.9713.8292 4.7823 1.0551 8.9793 3.0409 11.2711 5.3332 2.2366 2.2366 4.4831 8.3169 5.0215 13.5918.2313 2.2649.6261 4.3017.8769 4.5272.2508.225 1.2066.2035 2.1235-.0478 2.0573-.5642 2.5421-2.2587 2.0258-7.0798-.5505-5.1377-2.776-9.0982-7.0293-12.5061-8.6981-6.971-13.3973-8.555-26.3692-8.8905-3.3254-.0857-8.2937.01-11.0408.213zm19.4529 18.0906c-6.2686 3.2134-7.0425 3.3496-7.8553 1.3874-.3591-.8669-1.0962-1.9773-1.6377-2.4673-.9353-.847-1.1888-.7624-5.0777 1.7008-4.6982 2.9747-5.9337 3.5362-5.9337 2.6961 0-1.0573-2.6582-4.1078-3.5756-4.1041-.4911.0027-2.725 1.0505-4.9642 2.3296-2.2387 1.2787-4.5777 2.4863-5.1976 2.683-.9905.3144-1.0878.2013-.8028-.9333.2429-.9673-.0137-1.6077-1.0226-2.5551-1.3191-1.2397-1.3612-1.2445-2.0925-.2445-1.3107 1.7928-.9264 4.1188.9879 5.9741 2.4789 2.4027 5.6255 2.3554 10.1901-.1535l3.3365-1.8343 1.8948 2.0972c1.0415 1.153 2.3648 2.0967 2.9395 2.0967 1.1261 0 5.5934-2.1046 7.6544-3.6056 1.2434-.9059 1.2975-.8906 3.0714.8833 1.6346 1.6345 2.0142 1.7775 4.0157 1.5089 1.2161-.163 3.7949-1.1094 5.7313-2.1025l3.5204-1.8065 1.746 1.8086c1.4537 1.5052 2.0084 1.7565 3.3075 1.5 2.5825-.5111 2.6604-1.0842.5379-3.9753-1.5778-2.1492-5.4342-5.4115-6.1629-5.2133-.0783.0215-2.1529 1.0694-4.6108 2.3296zm-39.4078 14.648c-.8002 2.4237-.4706 3.8343 1.3511 5.7827 1.2398 1.326 1.6825 1.4742 3.7166 1.245 1.3838-.1561 3.5609-1.0326 5.4315-2.1871l3.1225-1.9274 1.5052 1.113c1.1987.8859 1.847 1.0247 3.1808.6787l1.6751-.4337-2.7224-3.0205c-1.7707-1.9642-3.1335-3.0199-3.8979-3.0199-.6467 0-2.3591.8139-3.8054 1.8086-2.2034 1.5158-5.9941 3.449-6.7633 3.449-.1146 0-.0689-.5584.1025-1.2403.2182-.8701-.0704-1.6845-.9679-2.7281l-1.2797-1.4874z"/><path d="m78.5135 60.0178c-6.2481 3.5751-6.8827 3.6918-7.7065 1.4137-1.1972-3.3112-1.6714-3.3564-6.93-.6645-2.6061 1.3338-5.0766 2.4253-5.4909 2.4253-.4138 0-.9138-.5326-1.1115-1.183-.4663-1.5389-2.3191-3.5488-3.2707-3.5488-.4106 0-2.3333 1.0646-4.2728 2.3659-3.4158 2.2917-4.6308 2.8643-4.0362 1.9021.3386-.5478-1.6466-3.2165-2.3927-3.2165-.2828 0-.8622.8333-1.2881 1.8522-.9069 2.1708-.5504 3.1204 1.9684 5.2397 1.4285 1.2024 2.0074 1.3717 3.7424 1.0941 1.1382-.182 3.1245-1.1472 4.4615-2.1682l2.41-1.8402 1.4327 1.5689c.7881.8627 2.0583 1.7255 2.8228 1.9174 2.2018.5526 5.5262-.2156 7.9189-1.8302l2.2039-1.4878 1.581 1.7702c2.4721 2.7681 5.4447 2.3122 11.9519-1.8312 3.1477-2.0053 3.6282-2.0389 4.4153-.3123.3365.7392.848 1.1987 1.1356 1.0205.8339-.5148.612-2.3754-.5746-4.827-.9522-1.9663-1.3202-2.2686-2.7602-2.266-1.0253.0016-3.4048 1-6.2102 2.6057zm-22.0012 14.526c-1.5762 1.0378-3.5226 2.2271-4.3254 2.6419-1.3438.695-1.4589.6772-1.4589-.2287 0-1.0242-1.5316-2.7239-2.4543-2.7239-.6309 0-1.7518 2.2959-1.7518 3.5877 0 1.634 2.9253 4.2986 4.7197 4.2986 1.4564 0 5.1303-1.6046 7.4499-3.2539.714-.5079 1.1588-.3228 2.5378 1.0562 2.1819 2.1819 4.8932 2.2266 8.911.1462l2.8512-1.4758 1.1793 1.369c1.031 1.1977 1.5635 1.3638 4.2459 1.3234 2.0599-.0311 4.277-.5342 6.7481-1.5305 2.0241-.8165 3.7533-1.5389 3.8427-1.6057.2992-.2239-1.3628-3.7827-1.9311-4.134-.3086-.1908-1.5683.1667-2.7986.795-2.8043 1.43-4.7701 2.032-7.8132 2.3916-2.1945.2598-2.4426.1699-3.0183-1.0946-.3455-.7571-.9669-1.5073-1.3817-1.6666-.4148-.1588-2.4732.5573-4.5735 1.592-4.5462 2.2397-5.1966 2.3085-5.1966.5488 0-1.5309-1.4069-3.9247-2.307-3.9247-.3349 0-1.8985.8496-3.4752 1.888z"/></g></g></svg>