<svg fill="none" height="120" viewBox="0 0 120 120" width="120" xmlns="http://www.w3.org/2000/svg"><g clip-rule="evenodd" fill-rule="evenodd"><path d="m20.469 16.5871c-.1108.3231-.2776 5.448-.371 11.3891-.1682 10.7373-.178 10.827-1.656 14.9802-1.0417 2.9278-2.5775 5.7829-5.1329 9.5406-8.86246 13.0334-9.79755 15.3122-10.58188 25.7874-.59365 7.9278.04838 20.0548 1.11497 21.0571 1.10651 1.0395 65.63651 2.6845 67.09471 1.7105.597-.399.5528-.976-.3348-4.3613-.5627-2.1463-1.1601-5.17-1.3282-6.7198l-.3053-2.818-16.3967-16.452-16.3966-16.4521 1.6696-1.6184c1.2324-1.1948 1.8429-1.4982 2.3323-1.1601.3645.2522 6.8828 6.5348 14.4852 13.961 7.6023 7.4262 14.0366 13.5027 14.2987 13.5027s.5828-.581.7134-1.2916c.3903-2.1266 2.5023-9.1076 3.5215-11.6414.5237-1.3014 2.2539-4.5772 3.8446-7.2796 3.8958-6.6184 6.8138-12.7263 7.8438-16.4206.7073-2.5381.8519-4.8746.8571-13.8549.0028-5.9412-.1461-11.1717-.3321-11.624-.3165-.7716-2.3126-.8219-32.5383-.8219-25.3403 0-32.2438.1249-32.4021.5871z" fill="#0061fe"/><g fill="#1e1919"><path d="m6.72737 17.5122c-.58143.2804-1.05673.6731-1.05673.8722 0 .7947 3.27633 9.7843 4.65106 12.762.8049 1.7438 1.7259 3.1692 2.0463 3.1683.967-.0028 3.6351-1.8195 3.6351-2.4751 0-.8468-4.3349-10.9839-5.619-13.1391-1.08301-1.8181-1.8401-2.0642-3.65673-1.1883zm-5.50955 16.4521-1.21782 1.0567 4.31098 3.1805c2.76065 2.0369 4.59842 3.0895 5.1094 2.9274 1.19672-.3799 2.97762-2.4516 2.70662-3.1486-.2404-.6176-8.33311-5.0727-9.21466-5.0727-.26253 0-1.02479.4757-1.69452 1.0567zm7.50559 10.2813c-4.59559 2.4816-7.749341 4.3894-7.749341 4.6881 0 .1977.491261.9308 1.091951 1.6292l1.09242 1.2695 4.11091-2.2407c2.2614-1.2329 4.22365-2.5338 4.36075-2.8912.2569-.6693-1.0177-3.0021-1.6259-2.9767-.18789.008-.76416.2428-1.28079.5218zm30.33939 4.4626c-.6059.4246-2.2318 1.8237-3.6131 3.1092-2.9809 2.7742-3.1063 2.2928 2.2769 8.7219 5.5457 6.6236 14.976 16.2948 31.4478 32.2495 3.467 3.358 7.174 7.1425 8.2378 8.4102 1.1826 1.408 2.6108 2.537 3.6737 2.902l1.7386.598 2.6874-2.868c1.733-1.8499 2.6113-3.157 2.4742-3.6825-.1823-.697-1.6603-2.5319-8.2886-10.2911-11.7865-13.7971-34.8326-37.6341-37.8327-39.1309-1.8927-.944-1.4841-.9411-2.802-.0183zm4.1428 5.8717 1.6067 1.8673-1.4737 1.4738c-.8111.8106-1.5339 1.3761-1.6067 1.2559-.0728-.1198-.9647-1.1098-1.982-2.1994l-1.85-1.982 1.1098-1.1812c1.4931-1.5888 2.2967-1.4423 4.1959.7656zm8.2637 8.5031c1.7682 1.8725 4.7985 5.0958 6.7339 7.1623 1.935 2.0665 5.5429 5.8796 8.0166 8.473 2.4741 2.594 5.3832 5.7641 6.4644 7.0449 1.0811 1.2812 2.7719 3.2073 3.7572 4.2809 2.3539 2.5653 5.9318 6.7222 6.3488 7.3774.1818.2855-.1056.9834-.6392 1.5512l-.9698 1.0323-1.8791-2.1989c-2.4878-2.9114-9.0249-9.6106-12.1721-12.4741-4.9178-4.4744-11.9448-11.4596-14.2588-14.1742-1.2916-1.5151-3.5821-3.9864-5.0906-5.4917l-2.7424-2.7371 1.2399-1.6255c.682-.8942 1.4053-1.6255 1.6077-1.6255s1.8152 1.5325 3.5835 3.405z"/><path d="m31.9025 27.4923c-.1668.1705-.1532.8778.0305 1.5715.6411 2.4211 1.3709 2.5112 21.9795 2.7137l19.0413.1864-.279-1.718c-.1531-.9445-.4448-1.8791-.6481-2.0759-.457-.4438-39.7039-1.1069-40.1242-.6777zm24.2563 10.1756c-19.7171.8923-27.4331 1.4447-28.3846 2.0327-.8341.5156.441 3.0696 1.5428 3.0889.5561.0099 5.1319-.0066 10.169-.0366 9.3171-.0559 11.2455-.1306 18.3166-.7088 2.1957-.1794 6.7866-.3113 10.2019-.2925 3.5403.0187 6.331-.1621 6.4912-.4218.5016-.8111-.7275-3.6154-1.6955-3.8686-1.0966-.2869-7.4816-.2075-16.6414.2067zm11.8951 12.3646c-.0846.0724-4.0391.2508-8.7883.3969-4.7491.1461-8.8122.4429-9.0287.6594-.2169.217-.2273 1.0173-.0234 1.7786.2883 1.0797.7256 1.462 1.9838 1.7363 2.3182.5058 18.7971.0559 19.3818-.5288.3184-.3185.3339-1.0882.046-2.2534-.3846-1.5574-.6162-1.7791-1.9274-1.8453-.8201-.0414-1.5598-.016-1.6438.0563zm-47.7379 1.13c-.456.2889-.5096.813-.2038 1.989l.4147 1.5964 3.8822.0634c2.135.0347 4.2875-.0428 4.783-.1724.9905-.2588 1.1718-1.5597.4147-2.9748-.4241-.7923-1.0093-.9074-4.5792-.9013-2.2511.0043-4.3716.1842-4.7116.3997zm1.5579 10.6725c-4.3913.3137-8.2482.5908-8.5713.6162-.712.0559-.7674 1.649-.101 2.8949.442.8252 1.0333.9084 6.4578.906 3.2843-.0014 8.0424-.1395 10.5739-.3071l4.6017-.3048-.14-2.1586-.1404-2.1585-2.3483-.0287c-1.2915-.0159-5.9411.2273-10.3324.5406zm-.1466 8.6717c-2.0458.8205-4.0155 3.6671-5.6612 8.1805-1.0957 3.0053-1.3522 3.3651-2.1788 3.0528-.5152-.1945-1.4493-.9051-2.0754-1.5795-.7871-.8468-1.6212-1.2253-2.7005-1.2253-.85901 0-1.56208.2212-1.56208.4922 0 1.4005 4.10528 3.723 6.59678 3.7319.5284.0019.7289.5011.7364 1.834.0282 4.8135 5.1987 7.182 12.337 5.6514 1.8932-.4063 2.547-.3701 3.428.1888.5993.3794 1.7439.8266 2.5446.9928 1.9308.4016 6.9317-.4325 9.1382-1.5245 1.7555-.8684 1.7795-.867 3.5346.1921.9722.5871 2.5404 1.1976 3.4849 1.3568 2.0932.3537 7.6018-.5485 8.7736-1.4366.7792-.5904.7148-.6482-.7359-.6618-.8741-.0084-2.3873.224-3.3623.5162-2.2323.6688-3.5393.34-5.6157-1.4123l-1.6438-1.3874 1.4738-1.5663c2.5779-2.7399 3.6159-5.719 2.5681-7.3722-.6031-.9524-4.2157-1.4953-6.3085-.9487-1.3995.3659-1.9443.8233-2.4657 2.0707-.8562 2.0496-.8515 4.512.0132 6.5809l.6819 1.632-2.4431 1.4015c-2.9316 1.6814-5.0963 1.8096-6.5189.387l-1.0224-1.0225 1.6095-1.1882c4.8934-3.6107 7.6272-7.9611 5.8289-9.2762-1.9838-1.4507-6.9782-1.3268-8.3599.2081-1.579 1.7532-3.1547 5.6889-3.2068 8.009-.0489 2.167-.1677 2.3981-1.5189 2.964-.8064.3373-2.3811.6158-3.5003.6186-1.7082.0047-2.2544-.2405-3.405-1.5283-.9469-1.0595-1.3705-2.0289-1.3705-3.1368 0-1.5748.0474-1.6128 2.7005-2.1506 5.0178-1.0168 9.5106-4.9262 9.5106-8.2749 0-3.1499-5.6871-5.8199-9.3049-4.3692zm4.8751 2.5615c.9205 2.2027.5138 3.4886-1.8284 5.7815-1.9979 1.9561-5.4833 3.7995-5.4833 2.9006 0-2.2271 4.8328-10.3296 6.161-10.3296.2541 0 .7721.7416 1.1507 1.6475zm10.5353 6.501c0 1.1037-1.9683 4.1964-3.444 5.4114-.673.5547-.7829.5392-.7829-.1075 0-1.0812 1.4311-4.6196 2.2591-5.5857.9952-1.161 1.9678-1.0215 1.9678.2818zm9.9065 2.2234c-.2968.99-.7449 1.9265-.9961 2.082-.6181.3818-.5857-2.6606.046-4.3218.464-1.2197.541-1.254.9961-.441.3485.6232.3349 1.4089-.046 2.6808z"/></g></g></svg>